<svg version="1.1" id="Layer_1" xmlns="http://www.w3.org/2000/svg" xmlns:xlink="http://www.w3.org/1999/xlink" x="0px" y="0px"
	 width="100%" viewBox="0 0 642 638" enable-background="new 0 0 642 638" xml:space="preserve">
<path fill="#474747" opacity="1.000000" stroke="none" 
	d="
M104.000000,639.000000 
	C69.673607,639.000000 35.347221,639.000000 1.015623,639.000000 
	C1.010415,426.383301 1.010415,213.766571 1.010415,1.074929 
	C214.906738,1.074929 428.813507,1.074929 642.860107,1.074929 
	C642.860107,213.666595 642.860107,426.333282 642.860107,639.000000 
	C607.249207,639.000000 571.589661,639.000000 535.384888,638.614563 
	C533.782166,634.032166 532.836670,629.803284 531.650208,625.643127 
	C514.239136,564.592651 481.383484,514.330566 428.294128,478.348694 
	C356.004578,429.353607 260.214935,433.743744 192.622269,488.929169 
	C144.652802,528.093384 116.723488,579.045349 104.000000,639.000000 
M404.881531,175.616959 
	C374.257538,156.088913 340.901245,149.438553 305.328400,155.983704 
	C231.235580,169.616241 182.243576,240.031113 195.860123,314.429596 
	C205.297089,365.991486 235.694138,401.888367 284.961761,419.207855 
	C335.237244,436.881683 382.188293,427.511444 421.953644,391.823761 
	C488.967682,331.681519 480.446167,225.951874 404.881531,175.616959 
z"/>
<path fill="#000000" opacity="1.000000" stroke="none" 
	d="
M104.468658,639.000000 
	C116.723488,579.045349 144.652802,528.093384 192.622269,488.929169 
	C260.214935,433.743744 356.004578,429.353607 428.294128,478.348694 
	C481.383484,514.330566 514.239136,564.592651 531.650208,625.643127 
	C532.836670,629.803284 533.782166,634.032166 534.919861,638.614563 
	C391.645782,639.000000 248.291550,639.000000 104.468658,639.000000 
z"/>
<path fill="#000000" opacity="1.000000" stroke="none" 
	d="
M405.184753,175.813538 
	C480.446167,225.951874 488.967682,331.681519 421.953644,391.823761 
	C382.188293,427.511444 335.237244,436.881683 284.961761,419.207855 
	C235.694138,401.888367 205.297089,365.991486 195.860123,314.429596 
	C182.243576,240.031113 231.235580,169.616241 305.328400,155.983704 
	C340.901245,149.438553 374.257538,156.088913 405.184753,175.813538 
z"/>
</svg>