<svg version="1.1" id="Layer_1" xmlns="http://www.w3.org/2000/svg" xmlns:xlink="http://www.w3.org/1999/xlink" x="0px" y="0px"
	 width="100%" viewBox="0 0 1254 1254" enable-background="new 0 0 1254 1254" xml:space="preserve">
<path fill="#000000" opacity="1.000000" stroke="none" 
	d="
M725.000000,1255.000000 
	C483.333344,1255.000000 242.166672,1255.000000 1.000000,1255.000000 
	C1.000000,837.000000 1.000000,419.000000 1.000000,1.000000 
	C419.000000,1.000000 837.000000,1.000000 1255.000000,1.000000 
	C1255.000000,419.000000 1255.000000,837.000000 1255.000000,1255.000000 
	C1078.500000,1255.000000 902.000000,1255.000000 725.000000,1255.000000 
M598.054321,713.823242 
	C601.011108,734.648438 612.631592,745.512146 633.377197,745.890198 
	C652.868408,746.245422 672.379822,746.235413 691.867249,745.763306 
	C702.431458,745.507263 712.258423,742.352356 719.398193,733.697449 
	C725.362549,726.467529 726.869263,717.804199 726.913696,708.854614 
	C727.053345,680.690674 726.997375,652.525696 727.016785,624.361145 
	C727.018005,622.599243 727.016968,620.837402 727.016968,619.188232 
	C705.236511,619.188232 684.175049,619.188232 663.204285,619.188232 
	C663.204285,629.502686 663.204285,639.437317 663.204285,650.019104 
	C669.697876,650.019104 675.915771,650.019104 682.256714,650.019104 
	C682.256714,668.835449 682.336060,686.999084 682.211243,705.161316 
	C682.170654,711.061890 680.000671,713.692139 674.778870,713.873901 
	C666.625427,714.157715 658.449402,714.055420 650.290771,713.832214 
	C645.395569,713.698364 642.629700,710.858521 642.441589,705.899536 
	C642.290100,701.905579 642.360535,697.902649 642.358459,693.903687 
	C642.333374,645.074280 642.307556,596.244934 642.296753,547.415527 
	C642.294983,539.286743 644.808167,536.655090 653.016174,536.424683 
	C658.511292,536.270447 664.013977,536.388062 669.513245,536.380127 
	C680.386658,536.364502 682.257568,538.216064 682.288635,549.166321 
	C682.315796,558.768616 682.294312,568.370972 682.294312,578.121704 
	C697.417419,578.121704 712.007080,578.121704 726.782410,578.121704 
	C726.782410,563.797363 727.390320,549.781738 726.603882,535.844849 
	C725.881531,523.043030 719.935608,512.700623 707.301697,507.915253 
	C701.929199,505.880280 696.039124,504.326660 690.344666,504.188812 
	C671.524109,503.733276 652.676819,503.665283 633.856140,504.122467 
	C612.999939,504.629089 600.178772,516.467957 597.991272,536.901306 
	C597.959045,594.781128 597.925537,652.660950 597.906555,710.540771 
	C597.906250,711.362061 598.087402,712.183350 598.054321,713.823242 
M460.284821,744.253235 
	C465.233582,744.824646 470.176819,745.824036 475.132172,745.888367 
	C490.958801,746.093689 506.790070,745.915344 522.619385,745.952148 
	C551.381836,746.019104 564.288513,733.295898 564.313538,704.658325 
	C564.348816,664.334473 564.353699,624.010681 564.314819,583.686829 
	C564.299622,567.859558 564.489136,552.019531 563.917847,536.209412 
	C563.472778,523.892029 558.082703,513.756348 546.427856,508.633942 
	C540.616577,506.079834 533.964661,504.456757 527.633728,504.252686 
	C509.323181,503.662445 490.958435,503.452606 472.665527,504.251862 
	C465.267609,504.575073 457.391876,506.720642 450.806519,510.117218 
	C438.631348,516.396973 435.427307,528.412720 435.395935,541.106689 
	C435.257477,597.093140 435.193512,653.080872 435.460541,709.066467 
	C435.550873,728.000244 443.398346,738.683838 460.284821,744.253235 
M342.500000,503.951569 
	C331.839783,503.952087 321.161163,503.557434 310.523895,504.051605 
	C296.713776,504.693146 283.592957,507.999023 277.185059,521.889771 
	C274.429657,527.862732 273.143219,535.026672 273.107147,541.659973 
	C272.802795,597.623718 272.894867,653.589966 272.972382,709.555298 
	C273.003296,731.851501 286.272400,745.534302 308.592621,745.922852 
	C327.407959,746.250305 346.249969,746.419922 365.051514,745.796021 
	C385.734924,745.109741 400.164642,734.964539 401.400024,711.605164 
	C401.531921,709.111938 401.657867,706.614441 401.658325,704.118896 
	C401.666992,655.982056 401.682129,607.845215 401.625580,559.708374 
	C401.615814,551.386108 401.644775,543.037354 401.025299,534.747986 
	C399.887848,519.527100 390.886505,508.599426 375.786011,505.976929 
	C365.225098,504.142853 354.275818,504.545074 342.500000,503.951569 
M928.747192,691.498840 
	C928.729614,696.163574 928.895752,700.838074 928.648621,705.490601 
	C928.325806,711.567749 925.960693,713.829224 919.858582,713.967102 
	C912.864624,714.125183 905.864746,714.080017 898.867981,714.037354 
	C891.387512,713.991699 888.995422,711.668396 888.988892,704.104065 
	C888.943848,651.624573 888.936707,599.145081 888.966492,546.665588 
	C888.970642,539.273499 891.802063,536.495667 899.314697,536.367615 
	C905.309937,536.265442 911.310303,536.320496 917.306091,536.429688 
	C926.738220,536.601379 928.600098,538.529114 928.631897,548.043396 
	C928.665161,557.993042 928.639343,567.942810 928.639343,577.998535 
	C943.686768,577.998535 958.205566,577.998535 973.000122,577.998535 
	C973.000122,565.444458 973.136536,553.291138 972.970642,541.142029 
	C972.658936,518.317871 960.732117,505.232788 937.801514,504.234619 
	C918.514587,503.395050 899.142700,503.559845 879.842529,504.243408 
	C861.048401,504.909027 849.145874,514.334106 845.654968,530.044617 
	C844.690552,534.384888 844.476562,538.961060 844.459351,543.431091 
	C844.363831,568.254333 844.437683,593.078186 844.448425,617.901855 
	C844.461548,648.223450 844.352600,678.545654 844.517273,708.866455 
	C844.646606,732.675171 857.818542,745.840820 881.392151,745.981079 
	C899.551025,746.089172 917.711853,746.118530 935.870361,745.985901 
	C959.752136,745.811462 972.713989,732.866394 973.014099,709.153870 
	C973.030945,707.821167 973.029236,706.488281 973.028931,705.155457 
	C973.022400,678.332581 973.014771,651.509766 973.007568,624.686890 
	C973.007080,622.897644 973.007507,621.108337 973.007507,619.169556 
	C951.550842,619.169556 930.534729,619.169556 909.665649,619.169556 
	C909.665649,629.622314 909.665649,639.677673 909.665649,650.125000 
	C916.205566,650.125000 922.307373,650.125000 928.749817,650.125000 
	C928.749817,663.853516 928.749817,677.176331 928.747192,691.498840 
M1017.500000,745.960449 
	C1050.952026,745.960449 1084.404175,745.960449 1117.959229,745.960449 
	C1117.959229,734.426941 1117.959229,723.367798 1117.959229,711.905518 
	C1091.061035,711.905518 1064.500732,711.905518 1037.405273,711.905518 
	C1038.186035,710.038208 1038.692139,708.667480 1039.317871,707.353821 
	C1064.636719,654.202881 1089.881958,601.016602 1115.399170,547.960938 
	C1118.665283,541.169800 1120.598389,534.517822 1120.197510,526.961487 
	C1119.796021,519.395325 1120.109253,511.791290 1120.109253,504.229370 
	C1078.411011,504.229370 1037.491821,504.229370 996.453857,504.229370 
	C996.453857,515.570496 996.453857,526.591492 996.453857,538.058044 
	C1022.561768,538.058044 1048.274170,538.058044 1074.599487,538.058044 
	C1067.235840,553.474487 1060.133423,568.271484 1053.093018,583.097961 
	C1035.403564,620.350525 1018.007019,657.745850 999.915344,694.801819 
	C994.156250,706.597717 990.323914,718.300720 991.730347,731.528381 
	C992.229431,736.221863 991.810181,741.012878 991.810181,745.959839 
	C1000.540039,745.959839 1008.520020,745.959839 1017.500000,745.960449 
M194.257141,607.499878 
	C194.257141,653.571777 194.257141,699.643677 194.257141,745.807068 
	C209.305176,745.807068 223.591385,745.807068 238.027649,745.807068 
	C238.027649,665.172668 238.027649,584.786072 238.027649,504.261841 
	C213.516647,504.261841 189.303482,504.261841 165.040649,504.261841 
	C165.040649,515.528137 165.040649,526.452515 165.040649,537.981323 
	C174.843185,537.981323 184.391464,537.981323 194.258087,537.981323 
	C194.258087,561.225220 194.258087,583.862488 194.257141,607.499878 
M762.908569,641.500000 
	C762.908569,676.238647 762.908569,710.977234 762.908569,745.819580 
	C777.903015,745.819580 792.156860,745.819580 806.674438,745.819580 
	C806.674438,665.202087 806.674438,584.838074 806.674438,504.267242 
	C792.035950,504.267242 777.668091,504.267242 762.909973,504.267242 
	C762.909973,549.933533 762.909973,595.216797 762.908569,641.500000 
z"/>
<path fill="#FBFBFB" opacity="1.000000" stroke="none" 
	d="
M459.890503,744.162354 
	C443.398346,738.683838 435.550873,728.000244 435.460541,709.066467 
	C435.193512,653.080872 435.257477,597.093140 435.395935,541.106689 
	C435.427307,528.412720 438.631348,516.396973 450.806519,510.117218 
	C457.391876,506.720642 465.267609,504.575073 472.665527,504.251862 
	C490.958435,503.452606 509.323181,503.662445 527.633728,504.252686 
	C533.964661,504.456757 540.616577,506.079834 546.427856,508.633942 
	C558.082703,513.756348 563.472778,523.892029 563.917847,536.209412 
	C564.489136,552.019531 564.299622,567.859558 564.314819,583.686829 
	C564.353699,624.010681 564.348816,664.334473 564.313538,704.658325 
	C564.288513,733.295898 551.381836,746.019104 522.619385,745.952148 
	C506.790070,745.915344 490.958801,746.093689 475.132172,745.888367 
	C470.176819,745.824036 465.233582,744.824646 459.890503,744.162354 
M494.553528,712.134216 
	C499.050507,712.140869 503.547455,712.156677 508.044434,712.152283 
	C518.058533,712.142395 519.848877,710.331299 519.858154,700.106445 
	C519.883057,672.458984 519.904846,644.811523 519.901611,617.164062 
	C519.898987,594.513184 519.889282,571.862244 519.820190,549.211548 
	C519.792480,540.114868 517.522034,537.888245 508.672668,537.888611 
	C503.009979,537.888855 497.347229,537.873962 491.684662,537.897888 
	C481.999817,537.938782 479.957001,539.958557 479.948914,549.638672 
	C479.935425,565.794067 479.976715,581.949524 479.983368,598.104919 
	C479.997559,632.580994 479.980682,667.057068 480.030579,701.533081 
	C480.043182,710.241638 482.061279,712.179199 490.579987,712.166199 
	C491.579254,712.164673 492.578552,712.151062 494.553528,712.134216 
z"/>
<path fill="#FBFBFB" opacity="1.000000" stroke="none" 
	d="
M343.000000,503.950043 
	C354.275818,504.545074 365.225098,504.142853 375.786011,505.976929 
	C390.886505,508.599426 399.887848,519.527100 401.025299,534.747986 
	C401.644775,543.037354 401.615814,551.386108 401.625580,559.708374 
	C401.682129,607.845215 401.666992,655.982056 401.658325,704.118896 
	C401.657867,706.614441 401.531921,709.111938 401.400024,711.605164 
	C400.164642,734.964539 385.734924,745.109741 365.051514,745.796021 
	C346.249969,746.419922 327.407959,746.250305 308.592621,745.922852 
	C286.272400,745.534302 273.003296,731.851501 272.972382,709.555298 
	C272.894867,653.589966 272.802795,597.623718 273.107147,541.659973 
	C273.143219,535.026672 274.429657,527.862732 277.185059,521.889771 
	C283.592957,507.999023 296.713776,504.693146 310.523895,504.051605 
	C321.161163,503.557434 331.839783,503.952087 343.000000,503.950043 
M355.753601,541.003235 
	C353.057343,539.978699 350.412476,538.276794 347.654419,538.067627 
	C341.525848,537.602783 335.340424,537.852356 329.178375,537.871765 
	C319.626190,537.901917 317.360046,540.181580 317.362579,549.614197 
	C317.374084,592.250061 317.383484,634.885925 317.392029,677.521790 
	C317.393707,685.848999 317.274414,694.178284 317.420349,702.502869 
	C317.548828,709.829773 319.899536,712.059814 327.085938,712.112000 
	C333.580933,712.159180 340.076599,712.162476 346.571716,712.129883 
	C355.088989,712.087219 357.163544,710.008789 357.163452,701.473877 
	C357.162842,650.843750 357.160492,600.213684 357.093353,549.583618 
	C357.089874,546.966125 356.486145,544.349365 355.753601,541.003235 
z"/>
<path fill="#FBFAFB" opacity="1.000000" stroke="none" 
	d="
M928.748535,690.999023 
	C928.749817,677.176331 928.749817,663.853516 928.749817,650.125000 
	C922.307373,650.125000 916.205566,650.125000 909.665649,650.125000 
	C909.665649,639.677673 909.665649,629.622314 909.665649,619.169556 
	C930.534729,619.169556 951.550842,619.169556 973.007507,619.169556 
	C973.007507,621.108337 973.007080,622.897644 973.007568,624.686890 
	C973.014771,651.509766 973.022400,678.332581 973.028931,705.155457 
	C973.029236,706.488281 973.030945,707.821167 973.014099,709.153870 
	C972.713989,732.866394 959.752136,745.811462 935.870361,745.985901 
	C917.711853,746.118530 899.551025,746.089172 881.392151,745.981079 
	C857.818542,745.840820 844.646606,732.675171 844.517273,708.866455 
	C844.352600,678.545654 844.461548,648.223450 844.448425,617.901855 
	C844.437683,593.078186 844.363831,568.254333 844.459351,543.431091 
	C844.476562,538.961060 844.690552,534.384888 845.654968,530.044617 
	C849.145874,514.334106 861.048401,504.909027 879.842529,504.243408 
	C899.142700,503.559845 918.514587,503.395050 937.801514,504.234619 
	C960.732117,505.232788 972.658936,518.317871 972.970642,541.142029 
	C973.136536,553.291138 973.000122,565.444458 973.000122,577.998535 
	C958.205566,577.998535 943.686768,577.998535 928.639343,577.998535 
	C928.639343,567.942810 928.665161,557.993042 928.631897,548.043396 
	C928.600098,538.529114 926.738220,536.601379 917.306091,536.429688 
	C911.310303,536.320496 905.309937,536.265442 899.314697,536.367615 
	C891.802063,536.495667 888.970642,539.273499 888.966492,546.665588 
	C888.936707,599.145081 888.943848,651.624573 888.988892,704.104065 
	C888.995422,711.668396 891.387512,713.991699 898.867981,714.037354 
	C905.864746,714.080017 912.864624,714.125183 919.858582,713.967102 
	C925.960693,713.829224 928.325806,711.567749 928.648621,705.490601 
	C928.895752,700.838074 928.729614,696.163574 928.748535,690.999023 
z"/>
<path fill="#FCFBFC" opacity="1.000000" stroke="none" 
	d="
M598.243164,535.993042 
	C600.178772,516.467957 612.999939,504.629089 633.856140,504.122467 
	C652.676819,503.665283 671.524109,503.733276 690.344666,504.188812 
	C696.039124,504.326660 701.929199,505.880280 707.301697,507.915253 
	C719.935608,512.700623 725.881531,523.043030 726.603882,535.844849 
	C727.390320,549.781738 726.782410,563.797363 726.782410,578.121704 
	C712.007080,578.121704 697.417419,578.121704 682.294312,578.121704 
	C682.294312,568.370972 682.315796,558.768616 682.288635,549.166321 
	C682.257568,538.216064 680.386658,536.364502 669.513245,536.380127 
	C664.013977,536.388062 658.511292,536.270447 653.016174,536.424683 
	C644.808167,536.655090 642.294983,539.286743 642.296753,547.415527 
	C642.307556,596.244934 642.333374,645.074280 642.358459,693.903687 
	C642.360535,697.902649 642.290100,701.905579 642.441589,705.899536 
	C642.629700,710.858521 645.395569,713.698364 650.290771,713.832214 
	C658.449402,714.055420 666.625427,714.157715 674.778870,713.873901 
	C680.000671,713.692139 682.170654,711.061890 682.211243,705.161316 
	C682.336060,686.999084 682.256714,668.835449 682.256714,650.019104 
	C675.915771,650.019104 669.697876,650.019104 663.204285,650.019104 
	C663.204285,639.437317 663.204285,629.502686 663.204285,619.188232 
	C684.175049,619.188232 705.236511,619.188232 727.016968,619.188232 
	C727.016968,620.837402 727.018005,622.599243 727.016785,624.361145 
	C726.997375,652.525696 727.053345,680.690674 726.913696,708.854614 
	C726.869263,717.804199 725.362549,726.467529 719.398193,733.697449 
	C712.258423,742.352356 702.431458,745.507263 691.867249,745.763306 
	C672.379822,746.235413 652.868408,746.245422 633.377197,745.890198 
	C612.631592,745.512146 601.011108,734.648438 598.529907,713.411377 
	C603.338684,713.043457 601.948181,709.732117 601.950684,707.591248 
	C602.013489,654.367615 602.021606,601.143921 601.959595,547.920288 
	C601.954529,543.576233 601.379089,539.232788 601.055481,534.705200 
	C599.707764,535.322327 598.975464,535.657715 598.243164,535.993042 
z"/>
<path fill="#FBFBFB" opacity="1.000000" stroke="none" 
	d="
M1017.000000,745.960144 
	C1008.520020,745.959839 1000.540039,745.959839 991.810181,745.959839 
	C991.810181,741.012878 992.229431,736.221863 991.730347,731.528381 
	C990.323914,718.300720 994.156250,706.597717 999.915344,694.801819 
	C1018.007019,657.745850 1035.403564,620.350525 1053.093018,583.097961 
	C1060.133423,568.271484 1067.235840,553.474487 1074.599487,538.058044 
	C1048.274170,538.058044 1022.561768,538.058044 996.453857,538.058044 
	C996.453857,526.591492 996.453857,515.570496 996.453857,504.229370 
	C1037.491821,504.229370 1078.411011,504.229370 1120.109253,504.229370 
	C1120.109253,511.791290 1119.796021,519.395325 1120.197510,526.961487 
	C1120.598389,534.517822 1118.665283,541.169800 1115.399170,547.960938 
	C1089.881958,601.016602 1064.636719,654.202881 1039.317871,707.353821 
	C1038.692139,708.667480 1038.186035,710.038208 1037.405273,711.905518 
	C1064.500732,711.905518 1091.061035,711.905518 1117.959229,711.905518 
	C1117.959229,723.367798 1117.959229,734.426941 1117.959229,745.960449 
	C1084.404175,745.960449 1050.952026,745.960449 1017.000000,745.960144 
z"/>
<path fill="#FBFBFB" opacity="1.000000" stroke="none" 
	d="
M194.257614,606.999817 
	C194.258087,583.862488 194.258087,561.225220 194.258087,537.981323 
	C184.391464,537.981323 174.843185,537.981323 165.040649,537.981323 
	C165.040649,526.452515 165.040649,515.528137 165.040649,504.261841 
	C189.303482,504.261841 213.516647,504.261841 238.027649,504.261841 
	C238.027649,584.786072 238.027649,665.172668 238.027649,745.807068 
	C223.591385,745.807068 209.305176,745.807068 194.257141,745.807068 
	C194.257141,699.643677 194.257141,653.571777 194.257614,606.999817 
z"/>
<path fill="#FCFBFC" opacity="1.000000" stroke="none" 
	d="
M762.909302,641.000000 
	C762.909973,595.216797 762.909973,549.933533 762.909973,504.267242 
	C777.668091,504.267242 792.035950,504.267242 806.674438,504.267242 
	C806.674438,584.838074 806.674438,665.202087 806.674438,745.819580 
	C792.156860,745.819580 777.903015,745.819580 762.908569,745.819580 
	C762.908569,710.977234 762.908569,676.238647 762.909302,641.000000 
z"/>
<path fill="#F7F7F7" opacity="1.000000" stroke="none" 
	d="
M598.117188,536.447144 
	C598.975464,535.657715 599.707764,535.322327 601.055481,534.705200 
	C601.379089,539.232788 601.954529,543.576233 601.959595,547.920288 
	C602.021606,601.143921 602.013489,654.367615 601.950684,707.591248 
	C601.948181,709.732117 603.338684,713.043457 598.594604,713.002075 
	C598.087402,712.183350 597.906250,711.362061 597.906555,710.540771 
	C597.925537,652.660950 597.959045,594.781128 598.117188,536.447144 
z"/>
<path fill="#040404" opacity="1.000000" stroke="none" 
	d="
M494.065674,712.138672 
	C492.578552,712.151062 491.579254,712.164673 490.579987,712.166199 
	C482.061279,712.179199 480.043182,710.241638 480.030579,701.533081 
	C479.980682,667.057068 479.997559,632.580994 479.983368,598.104919 
	C479.976715,581.949524 479.935425,565.794067 479.948914,549.638672 
	C479.957001,539.958557 481.999817,537.938782 491.684662,537.897888 
	C497.347229,537.873962 503.009979,537.888855 508.672668,537.888611 
	C517.522034,537.888245 519.792480,540.114868 519.820190,549.211548 
	C519.889282,571.862244 519.898987,594.513184 519.901611,617.164062 
	C519.904846,644.811523 519.883057,672.458984 519.858154,700.106445 
	C519.848877,710.331299 518.058533,712.142395 508.044434,712.152283 
	C503.547455,712.156677 499.050507,712.140869 494.065674,712.138672 
z"/>
<path fill="#050504" opacity="1.000000" stroke="none" 
	d="
M355.957733,541.367798 
	C356.486145,544.349365 357.089874,546.966125 357.093353,549.583618 
	C357.160492,600.213684 357.162842,650.843750 357.163452,701.473877 
	C357.163544,710.008789 355.088989,712.087219 346.571716,712.129883 
	C340.076599,712.162476 333.580933,712.159180 327.085938,712.112000 
	C319.899536,712.059814 317.548828,709.829773 317.420349,702.502869 
	C317.274414,694.178284 317.393707,685.848999 317.392029,677.521790 
	C317.383484,634.885925 317.374084,592.250061 317.362579,549.614197 
	C317.360046,540.181580 319.626190,537.901917 329.178375,537.871765 
	C335.340424,537.852356 341.525848,537.602783 347.654419,538.067627 
	C350.412476,538.276794 353.057343,539.978699 355.957733,541.367798 
z"/>
</svg>